<svg xmlns="http://www.w3.org/2000/svg" width="20" height="20" viewBox="0 0 20 20" fill="none">
  <path fill-rule="evenodd" clip-rule="evenodd" d="M1 10.0713C1 9.519 1.44772 9.07129 2 9.07129H19C19.5523 9.07129 20 9.519 20 10.0713C20 10.6236 19.5523 11.0713 19 11.0713H2C1.44772 11.0713 1 10.6236 1 10.0713Z" fill="black"/>
  <path fill-rule="evenodd" clip-rule="evenodd" d="M0.292893 10.8494C-0.0976311 10.4589 -0.0976311 9.82575 0.292893 9.43523L9.36394 0.364182C9.75446 -0.0263422 10.3876 -0.0263419 10.7782 0.364182C11.1687 0.754707 11.1687 1.38787 10.7782 1.7784L2.41421 10.1423L10.494 18.2221C10.8845 18.6126 10.8845 19.2458 10.494 19.6363C10.1034 20.0268 9.47028 20.0268 9.07976 19.6363L0.292893 10.8494Z" fill="black"/>
</svg>