<svg xmlns="http://www.w3.org/2000/svg" width="8" height="11" viewBox="0 0 8 11" fill="none">
  <path fill-rule="evenodd" clip-rule="evenodd" d="M1.75 4.24185C1.75 3.01102 2.75381 2.00684 4 2.00684C5.24619 2.00684 6.25 3.01102 6.25 4.24185C6.25 4.75633 6.1096 5.26105 5.84392 5.70163L4 8.75948L2.15608 5.70163C1.8904 5.26105 1.75 4.75633 1.75 4.24185ZM7.75 4.24185C7.75 5.02932 7.5351 5.80186 7.12845 6.47622L5.07044 9.8891C4.5844 10.6951 3.4156 10.6951 2.92956 9.8891L0.871547 6.47622C0.464903 5.80186 0.25 5.02932 0.25 4.24185C0.25 2.17552 1.93248 0.506836 4 0.506836C6.06752 0.506836 7.75 2.17552 7.75 4.24185Z" fill="#4791FF"/>
  <circle cx="4" cy="4.48926" r="1" fill="#4791FF"/>
</svg>