<svg xmlns="http://www.w3.org/2000/svg" width="8" height="10" viewBox="0 0 8 10" fill="none">
  <path fill-rule="evenodd" clip-rule="evenodd" d="M1.75 3.74185C1.75 2.51102 2.75381 1.50684 4 1.50684C5.24619 1.50684 6.25 2.51102 6.25 3.74185C6.25 4.25633 6.1096 4.76105 5.84392 5.20163L4 8.25948L2.15608 5.20163C1.8904 4.76105 1.75 4.25633 1.75 3.74185ZM7.75 3.74185C7.75 4.52932 7.5351 5.30186 7.12845 5.97622L5.07044 9.3891C4.5844 10.1951 3.4156 10.1951 2.92956 9.3891L0.871547 5.97622C0.464903 5.30186 0.25 4.52932 0.25 3.74185C0.25 1.67552 1.93248 0.00683594 4 0.00683594C6.06752 0.00683594 7.75 1.67552 7.75 3.74185Z" fill="#666666"/>
  <circle cx="4" cy="3.98926" r="1" fill="#666666"/>
</svg>