<svg xmlns="http://www.w3.org/2000/svg" width="18" height="24" viewBox="0 0 18 24" fill="none">
<path fill-rule="evenodd" clip-rule="evenodd" d="M17.2856 12.7755C17.7455 11.6943 18 10.5046 18 9.25555C18 9.20515 17.9996 9.15484 17.9988 9.10463C17.9996 9.05051 18 8.99634 18 8.94215C18 8.90176 17.9965 8.86218 17.9898 8.8237C17.7645 4.05368 13.8258 0.255554 9 0.255554C4.17421 0.255554 0.235525 4.05368 0.0101788 8.8237C0.00348785 8.86218 0 8.90176 0 8.94215C0 8.99634 0.000413763 9.0505 0.0012399 9.10463C0.000414375 9.15484 0 9.20515 0 9.25555C0 10.5047 0.254465 11.6943 0.714383 12.7755C1.01664 13.5584 1.41205 14.3069 1.8953 15.0042L7.35619 22.8837C8.15158 24.0314 9.84842 24.0314 10.6438 22.8837L16.1047 15.0042C16.588 14.3069 16.9834 13.5583 17.2856 12.7755Z" fill="#4791FF"/>
<circle cx="9" cy="9.25555" r="4" fill="white"/>
</svg>