<svg xmlns="http://www.w3.org/2000/svg" width="10" height="10" viewBox="0 0 10 10" fill="none">
  <path fill-rule="evenodd" clip-rule="evenodd" d="M5.34444 5.2069C5.21774 5.09428 5.01191 5 4.75 5C4.48809 5 4.28226 5.09428 4.15556 5.2069C4.0316 5.31708 4 5.42333 4 5.5C4 5.57667 4.0316 5.68292 4.15556 5.7931C4.28226 5.90572 4.48809 6 4.75 6C5.01191 6 5.21774 5.90572 5.34444 5.7931C5.4684 5.68292 5.5 5.57667 5.5 5.5C5.5 5.42333 5.4684 5.31708 5.34444 5.2069ZM7 5.5C7 4.39543 5.99264 3.5 4.75 3.5C3.50736 3.5 2.5 4.39543 2.5 5.5C2.5 6.60457 3.50736 7.5 4.75 7.5C5.99264 7.5 7 6.60457 7 5.5Z" fill="#666666"/>
  <path d="M6 4.5L7.54751 1C8.5 1.27273 9 2.45455 9 3" stroke="#666666" stroke-width="1.5" stroke-linecap="round" stroke-linejoin="round"/>
  <path d="M5.21053 1C2.88512 1 1 2.79086 1 5C1 7.20914 2.88512 9 5.21053 9C6.87714 9 8.31759 8.08012 9 6.74565" stroke="#666666" stroke-width="1.5" stroke-linecap="round"/>
</svg>