<svg xmlns="http://www.w3.org/2000/svg" width="10" height="11" viewBox="0 0 10 11" fill="none">
  <path fill-rule="evenodd" clip-rule="evenodd" d="M5.34444 5.7069C5.21774 5.59428 5.01191 5.5 4.75 5.5C4.48809 5.5 4.28226 5.59428 4.15556 5.7069C4.0316 5.81708 4 5.92333 4 6C4 6.07667 4.0316 6.18292 4.15556 6.2931C4.28226 6.40572 4.48809 6.5 4.75 6.5C5.01191 6.5 5.21774 6.40572 5.34444 6.2931C5.4684 6.18292 5.5 6.07667 5.5 6C5.5 5.92333 5.4684 5.81708 5.34444 5.7069ZM7 6C7 4.89543 5.99264 4 4.75 4C3.50736 4 2.5 4.89543 2.5 6C2.5 7.10457 3.50736 8 4.75 8C5.99264 8 7 7.10457 7 6Z" fill="#4791FF"/>
  <path d="M6 5L7.54751 1.5C8.5 1.77273 9 2.95455 9 3.5" stroke="#4791FF" stroke-width="1.5" stroke-linecap="round" stroke-linejoin="round"/>
  <path d="M5.21053 1.5C2.88512 1.5 1 3.29086 1 5.5C1 7.70914 2.88512 9.5 5.21053 9.5C6.87714 9.5 8.31759 8.58012 9 7.24565" stroke="#4791FF" stroke-width="1.5" stroke-linecap="round"/>
</svg>