<svg width="8" height="10" viewBox="0 0 8 10" fill="none" xmlns="http://www.w3.org/2000/svg">
    <path fill-rule="evenodd" clip-rule="evenodd" d="M1.5 3.75358C1.5 2.53623 2.49284 1.54297 3.72548 1.54297C4.95813 1.54297 5.95097 2.53623 5.95097 3.75358H7.45097C7.45097 1.70073 5.77946 0.0429688 3.72548 0.0429688C1.6715 0.0429688 0 1.70073 0 3.75358H1.5ZM0 3.75384C0 4.536 0.21345 5.30332 0.617348 5.97312L2.65504 9.35231C3.14108 10.1583 4.30989 10.1583 4.79592 9.35231L6.83362 5.97312C7.23752 5.30332 7.45097 4.536 7.45097 3.75384H5.95097C5.95097 4.263 5.81202 4.76251 5.54909 5.19853L3.72548 8.22269L1.90188 5.19853C1.63895 4.76251 1.5 4.263 1.5 3.75384H0Z" fill="#4791FF"/>
    <circle cx="3.72553" cy="3.99891" r="0.991828" fill="#4791FF"/>
</svg>
