<svg width="16" height="16" viewBox="0 0 16 16" fill="none" xmlns="http://www.w3.org/2000/svg">
<path fill-rule="evenodd" clip-rule="evenodd" d="M11.6248 6.56247C11.6248 9.35839 9.35827 11.6249 6.56235 11.6249C3.76642 11.6249 1.49988 9.35839 1.49988 6.56247C1.49988 3.76654 3.76642 1.5 6.56235 1.5C9.35827 1.5 11.6248 3.76654 11.6248 6.56247ZM10.6037 11.7333C9.48969 12.6052 8.08671 13.1249 6.56235 13.1249C2.938 13.1249 -0.00012207 10.1868 -0.00012207 6.56247C-0.00012207 2.93812 2.938 0 6.56235 0C10.1867 0 13.1248 2.93812 13.1248 6.56247C13.1248 8.08676 12.6051 9.48967 11.7333 10.6037L15.7661 14.6365C16.078 14.9484 16.078 15.4541 15.7661 15.7661C15.4542 16.078 14.9485 16.078 14.6365 15.7661L10.6037 11.7333Z" fill="black"/>
</svg>
