<svg xmlns="http://www.w3.org/2000/svg" width="20" height="22" viewBox="0 0 20 22" fill="none">
  <path d="M15.8557 1.33579C16.6368 0.554738 17.9031 0.554738 18.6841 1.33579L19.3913 2.04289C20.1723 2.82394 20.1723 4.09027 19.3913 4.87132L9.04066 15.2219C8.87524 15.3873 8.65707 15.4895 8.42409 15.5107L6.09064 15.7228C5.4687 15.7794 4.94767 15.2583 5.00421 14.6364L5.21634 12.3029C5.23752 12.07 5.33971 11.8518 5.50513 11.6864L15.8557 1.33579Z" fill="white"/>
  <path fill-rule="evenodd" clip-rule="evenodd" d="M0 1.5C0 1.08579 0.335786 0.75 0.75 0.75H12.25C12.6642 0.75 13 1.08579 13 1.5C13 1.91421 12.6642 2.25 12.25 2.25H1.5V19.75H18.5V8C18.5 7.58579 18.8358 7.25 19.25 7.25C19.6642 7.25 20 7.58579 20 8V20.5C20 20.9142 19.6642 21.25 19.25 21.25H0.75C0.335786 21.25 0 20.9142 0 20.5V1.5Z" fill="white"/>
</svg>