<svg xmlns="http://www.w3.org/2000/svg" width="16" height="16" viewBox="0 0 16 16" fill="none">
  <circle cx="8" cy="8" r="8" fill="#4791FF"/>
  <mask id="mask0_182_1359" style="mask-type:alpha" maskUnits="userSpaceOnUse" x="0" y="0" width="16" height="16">
    <circle cx="8" cy="8" r="8" fill="#4791FF"/>
  </mask>
  <g mask="url(#mask0_182_1359)">
    <path d="M1.39598 9.55702C1.13827 9.17044 0.250569 9.10959 -0.161064 9.12749L-0.805359 6.5503L0.697997 1.50333C4.33111 0.590574 11.6295 -1.20271 11.7584 -1.07386C11.9195 -0.912782 11.7584 0.697956 10.4161 1.50333C10.094 2.04024 10.792 1.6644 10.7383 1.98655C10.6846 2.30869 10.6846 2.79192 10.4161 3.54359C10.1477 4.29527 10.7383 4.56373 9.9329 4.7248C9.12753 4.88588 9.39598 4.99326 9.23491 5.3154C9.07384 5.63755 7.94632 5.58386 8.53692 5.9597C9.00941 6.26037 8.96645 7.51675 9.12753 7.30198C9.2886 7.73151 9.18122 7.73151 8.96645 7.89259C8.69142 8.09886 8.16108 8.21474 7.94632 8.21473V7.46306C7.94632 7.1946 7.89263 6.81876 7.57048 7.14091C7.24833 7.46305 7.35571 6.76507 7.40941 6.33554C7.4631 5.90601 6.97988 5.90601 6.76511 6.12077C6.55035 6.33554 6.44296 6.604 6.76511 7.14091C7.08726 7.67782 7.30202 8.05366 6.97988 9.12749C6.76511 9.82547 5.85236 10.8456 5.36914 10.6845C4.89953 10.528 4.77853 9.6644 4.88592 9.12749C4.97182 8.69796 4.76064 8.48319 4.40269 8.21473C4.15214 8.51898 3.58659 9.21339 3.32887 9.55702C3.00672 9.98655 3.48994 11.3288 2.63088 11.1678C1.77182 11.0067 1.71813 10.0402 1.39598 9.55702Z" fill="#30D7AF"/>
    <path d="M12.7785 1.98655L13.5839 0.91272C14.8009 1.18118 17.2027 1.77178 17.0738 1.98655C16.9128 2.25501 17.396 11.9194 16.9128 11.7584C16.4295 11.5973 15.8389 10.953 15.141 10.0402C14.443 9.12749 14.8188 8.85903 14.8188 7.94628C14.8188 7.03353 15.0336 6.5503 14.8188 6.33554C14.604 6.12077 14.3356 5.47648 14.1208 4.7248C13.9061 3.97313 13.745 3.54359 13.5839 3.70467C13.4228 3.86574 13.1544 4.7248 12.5101 4.99326C11.8658 5.26171 11.9732 4.99326 12.2416 4.7248C12.5101 4.45635 12.7785 4.1342 12.5101 3.38252C12.2953 2.78118 12.5996 2.20131 12.7785 1.98655Z" fill="#30D7AF"/>
    <path d="M6.97988 14.7114C6.97988 14.3248 8.26847 13.4765 8.91276 13.1006C9.26662 12.8859 9.287 13.1071 9.23491 13.3154C9.07384 13.9597 9.2886 14.2282 9.9329 13.9597C10.5772 13.6912 10.5772 13.1006 11.2752 13.9597C11.9732 14.8188 11.2752 15.1946 10.7383 16.161C10.2014 17.1275 10.1477 16.9127 9.61075 16.5369C9.07384 16.161 9.23491 16.161 8.91276 16.161C8.59061 16.161 7.94632 16.5906 7.40941 16.161C6.87249 15.7315 6.97988 15.1946 6.97988 14.7114Z" fill="#30D7AF"/>
    <path d="M5.58391 12.5637C5.45505 12.1771 5.38704 11.6152 5.36914 11.3825C5.44073 11.2393 5.6376 10.9744 5.85236 11.0604C6.12082 11.1677 6.17451 11.812 6.17451 12.3489C6.17451 12.8859 6.38927 12.9395 6.17451 13.208C5.95974 13.4765 5.74498 13.0469 5.58391 12.5637Z" fill="#30D7AF"/>
  </g>
</svg>