<svg width="100" height="60" viewBox="0 0 100 60" fill="none" xmlns="http://www.w3.org/2000/svg">
<rect width="100" height="60" rx="2" fill="#F7F7F7"/>
<path fill-rule="evenodd" clip-rule="evenodd" d="M47.75 20.7416C47.75 19.5108 48.7538 18.5066 50 18.5066C51.2462 18.5066 52.25 19.5108 52.25 20.7416C52.25 21.2561 52.1096 21.7608 51.8439 22.2014L50 25.2593L48.1561 22.2014C47.8904 21.7608 47.75 21.2561 47.75 20.7416ZM53.75 20.7416C53.75 21.5291 53.5351 22.3016 53.1285 22.976L51.0704 26.3889C50.5844 27.1949 49.4156 27.1949 48.9296 26.3889L46.8715 22.976C46.4649 22.3016 46.25 21.5291 46.25 20.7416C46.25 18.6753 47.9325 17.0066 50 17.0066C52.0675 17.0066 53.75 18.6753 53.75 20.7416Z" fill="#AAAAAA"/>
<circle cx="50" cy="20.9891" r="1" fill="#AAAAAA"/>
<path d="M42.0408 32.1934C42.0359 33.2627 43.491 34.1318 45.0291 34.3418L44.7264 34.9473C43.325 34.7422 42.0115 34.0439 41.5428 33.0283C41.0691 34.0439 39.7654 34.7422 38.3592 34.9473L38.076 34.3418C39.6043 34.1318 41.0496 33.2627 41.0447 32.1934V32.1738H38.3104V31.5488H44.7947V32.1738H42.0408V32.1934ZM37.5779 36.2168V35.582H45.5271V36.2168H41.992V37.9941H41.2303V36.2168H37.5779ZM38.5936 39.6055V37.125H39.365V38.9609H44.6385V39.6055H38.5936ZM53.1885 31.1094V39.8105H52.417V31.1094H53.1885ZM46.5381 37.7109V31.8516H47.2998V34.1465H49.8877V31.8516H50.6396V37.7109H46.5381ZM47.2998 37.0664H49.8877V34.7617H47.2998V37.0664ZM62.383 35.1719V35.8066H58.799V36.7344C60.4348 36.8076 61.4064 37.3398 61.4162 38.2578C61.4064 39.2295 60.2883 39.7715 58.4279 39.7715C56.5432 39.7715 55.425 39.2295 55.4299 38.2578C55.425 37.3398 56.3918 36.8076 58.0471 36.7344V35.8066H54.4729V35.1719H62.383ZM54.9221 34.0391C56.426 33.8828 57.8762 33.1162 57.9299 32.1445H55.1955V31.5195H61.6799V32.1445H58.926C58.9797 33.1162 60.4152 33.8828 61.9436 34.0391L61.6604 34.6445C60.2395 34.4736 58.9064 33.834 58.4279 32.8721C57.9494 33.834 56.6262 34.4736 55.1955 34.6445L54.9221 34.0391ZM56.2111 38.2578C56.2014 38.834 57.0363 39.1807 58.4279 39.1758C59.8049 39.1807 60.6398 38.834 60.6447 38.2578C60.6398 37.667 59.8049 37.3301 58.4279 37.3203C57.0363 37.3301 56.2014 37.667 56.2111 38.2578Z" fill="#AAAAAA"/>
</svg>
